<?xml version="1.0" encoding="utf-8"?>
<!-- Generator: Adobe Illustrator 19.2.1, SVG Export Plug-In . SVG Version: 6.00 Build 0)  -->
<svg version="1.1" id="Layer_1" xmlns="http://www.w3.org/2000/svg" xmlns:xlink="http://www.w3.org/1999/xlink" x="0px" y="0px"
	 viewBox="0 0 216 54" style="enable-background:new 0 0 216 54;" xml:space="preserve">
<style type="text/css">
	.st0{fill:#6A737B;}
	.st1{fill:#49A942;}
</style>
<g>
	<polygon class="st0" points="24.9,19.5 14.7,19.5 14.7,6.1 7.8,6.1 7.8,39 14.7,39 14.7,25.7 24.9,25.7 24.9,39 31.8,39 31.8,6.1 
		24.9,6.1 	"/>
	<path class="st0" d="M50.6,33.4c-4,1.4-9.4,0-9.2-4.9V15.2H35v13.2c0,7.2,5.5,11,12.2,11c3.1,0,6.1-0.5,9.9-1.8V15.2h-6.5
		L50.6,33.4L50.6,33.4z"/>
	<path class="st0" d="M70.1,14.7c-1.1,0-2.3,0.2-3.5,0.5v-9h-6.4v31.7c3.7,1.3,6.9,1.5,9.6,1.5c8,0,12.5-6.1,12.5-12.2
		C82.2,20.6,77,14.7,70.1,14.7 M69.7,33.8c-1,0-2.1-0.1-3.1-0.3V21.1c1-0.4,1.8-0.5,2.7-0.5c3.6,0,6.5,2.9,6.5,6.7
		C75.9,30.3,73.7,33.8,69.7,33.8"/>
	<polygon class="st0" points="111.6,15.1 109,27 108.2,31.8 107,27.2 103.6,15.2 96.4,15.2 93.4,27.2 92.1,33.2 91,27 88.4,15.1 
		81.8,15.1 87.7,39 96.2,39 99.1,27.6 100,22.7 101,27.6 103.7,39 112.2,39 118.3,15.1 	"/>
	<path class="st0" d="M128.3,14.5c-3.1,0-6.3,1-9.2,3.2l2.2,3.9c1.9-1.1,4-1.8,6.4-1.8c2.4,0,4.7,1.1,4.7,4.1
		c-6.2-2-14.9,0.5-14.9,7.6c0,4.1,3.3,8,9.6,8c1.9,0,4.2-0.8,5.7-2.6l0.8,2.1h5.1V24.8C138.8,17.8,133.7,14.5,128.3,14.5
		 M132.5,32.6c-1,0.8-2.8,1.7-4.2,1.7c-3.1,0-4.8-1.6-4.8-3.2c0.1-3.4,5.9-3.6,9-2.3L132.5,32.6L132.5,32.6z"/>
	<path class="st0" d="M156.6,15.2l-4.2,11.9l-1.1,3.4l-1.4-3.3l-4.9-12h-6.9c2.9,7,6.4,15.2,9.3,22.3c-1,4.4-1.2,5.3-5.5,5.3v4.8
		c3.9,0.8,9.1,0,10.9-4.6l10.7-27.9H156.6z"/>
	<path class="st1" d="M209.3,28.6c-0.1,0-1.1-0.1-1.1-1.1c0-1,1.1-1.1,1.1-1.1c0.1,0,0.1-0.1,0.2-0.2c0-0.1,0-0.3,0-0.4
		c0,0,0,0,0-0.1c0-0.1-0.1-0.2-0.2-0.2c-0.1,0-1.1,0.1-1.2-0.9c-0.1-1,0.9-1.2,1-1.2c0.1,0,0.1-0.1,0.1-0.3v0c0-0.1-0.1-0.3-0.1-0.4
		c0,0,0,0,0-0.1c0-0.1-0.1-0.2-0.2-0.2c-0.1,0-1.1,0.3-1.3-0.7c-0.3-1,0.7-1.3,0.8-1.4c0.1,0,0.1-0.1,0.1-0.3c0,0,0,0,0,0
		c0-0.1-0.1-0.3-0.1-0.4c0,0,0,0,0,0c-0.1-0.1-0.1-0.2-0.3-0.1c-0.1,0-1,0.4-1.4-0.5c-0.4-0.9,0.5-1.4,0.6-1.5c0,0,0.1-0.2,0.1-0.3
		c-0.1-0.1-0.1-0.3-0.2-0.4c0,0,0,0-0.1,0c-0.1-0.1-0.2-0.1-0.3-0.1c-0.1,0-0.9,0.6-1.5-0.3c-0.6-0.9,0.3-1.5,0.3-1.5
		c0,0,0.1-0.2,0-0.3c-0.1-0.1-0.2-0.2-0.3-0.3c0,0,0,0-0.1,0c-0.1,0-0.2-0.1-0.3-0.1c-0.1,0-0.8,0.7-1.5-0.1
		c-0.7-0.8,0.1-1.5,0.1-1.6c0-0.1,0-0.2,0-0.3c-0.1-0.1-0.2-0.2-0.3-0.3c0,0,0,0-0.1,0c-0.1,0-0.2-0.1-0.3,0c-0.1,0-0.7,0.8-1.5,0.2
		c-0.8-0.7-0.2-1.5-0.1-1.6c0-0.1,0-0.2-0.1-0.3c-0.1-0.1-0.2-0.2-0.3-0.2c0,0,0,0-0.1,0c-0.1,0-0.2,0-0.3,0c-0.1,0-0.6,0.9-1.5,0.4
		c-0.9-0.5-0.4-1.5-0.4-1.5c0-0.1,0-0.2-0.1-0.3c0,0,0,0,0,0c-0.1-0.1-0.2-0.1-0.4-0.2c0,0,0,0-0.1,0c-0.1,0-0.2,0-0.3,0.1
		c0,0.1-0.4,1-1.4,0.6c-1-0.4-0.6-1.4-0.6-1.5c0-0.1-0.1-0.2-0.2-0.3h0c-0.1,0-0.3-0.1-0.4-0.1c0,0,0,0-0.1,0c-0.1,0-0.2,0-0.3,0.1
		c0,0.1-0.3,1-1.3,0.8c-1-0.3-0.8-1.3-0.8-1.4c0-0.1-0.1-0.2-0.2-0.2c-0.1,0-0.3-0.1-0.4-0.1c0,0,0,0-0.1,0c-0.1,0-0.2,0-0.3,0.2
		c0,0.1-0.1,1.1-1.2,1c-1-0.1-1-1.1-1-1.2c0-0.1-0.1-0.1-0.2-0.2c-0.1,0-0.3,0-0.4,0c0,0,0,0-0.1,0c-0.1,0-0.2,0.1-0.2,0.2
		c0,0.1,0,1.1-1,1.1c-1,0.1-1.1-1-1.2-1.1c0-0.1-0.1-0.1-0.2-0.2h0c-0.1,0-0.3,0-0.4,0.1c0,0,0,0-0.1,0c-0.1,0-0.2,0.1-0.2,0.2
		c0,0.1,0.2,1.1-0.8,1.3c-1,0.2-1.3-0.8-1.3-0.9c0-0.1-0.1-0.1-0.3-0.1c0,0,0,0,0,0c-0.1,0-0.3,0.1-0.4,0.1c0,0,0,0,0,0
		c-0.1,0.1-0.2,0.1-0.2,0.3c0,0.1,0.3,1-0.6,1.4c-1,0.4-1.4-0.6-1.4-0.7c0,0-0.2-0.1-0.3-0.1C180.1,7.9,180,8,179.9,8c0,0,0,0,0,0.1
		c-0.1,0.1-0.1,0.2-0.1,0.3c0,0.1,0.5,1-0.4,1.5c-0.9,0.5-1.4-0.4-1.5-0.5c0,0-0.2-0.1-0.3,0c-0.1,0.1-0.2,0.2-0.4,0.2
		c0,0,0,0,0,0.1C177,9.7,177,9.8,177,9.9c0,0.1,0.6,0.9-0.2,1.5c-0.8,0.6-1.5-0.2-1.6-0.2c-0.1,0-0.2,0-0.3,0
		c-0.1,0.1-0.2,0.2-0.3,0.3c0,0,0,0,0,0.1c0,0.1-0.1,0.2,0,0.3c0,0.1,0.8,0.8,0,1.5c-0.7,0.7-1.5,0-1.6,0c-0.1,0-0.2,0-0.3,0
		c-0.1,0.1-0.2,0.2-0.3,0.3c0,0,0,0,0,0.1c0,0.1-0.1,0.2,0,0.3c0,0.1,0.9,0.7,0.3,1.5c-0.6,0.8-1.5,0.3-1.6,0.2
		c-0.1,0-0.2,0-0.3,0.1c0,0,0,0,0,0c-0.1,0.1-0.1,0.2-0.2,0.4c0,0,0,0,0,0.1c0,0.1,0,0.2,0.1,0.3c0.1,0,1,0.5,0.5,1.4
		c-0.5,0.9-1.4,0.5-1.5,0.5c-0.1,0-0.2,0-0.3,0.1c0,0,0,0,0,0c-0.1,0.1-0.1,0.3-0.2,0.4c0,0,0,0,0,0.1c0,0.1,0,0.2,0.1,0.3
		c0.1,0,1,0.4,0.7,1.4c-0.3,1-1.3,0.7-1.4,0.7c-0.1,0-0.2,0.1-0.2,0.2c0,0.1-0.1,0.3-0.1,0.4c0,0,0,0,0,0.1c0,0.1,0,0.2,0.1,0.3
		c0.1,0,1.1,0.2,0.9,1.2c-0.2,1-1.2,0.9-1.3,0.9c-0.1,0-0.2,0.1-0.2,0.2c0,0.1,0,0.2,0,0.2c0,0.1,0,0.1,0,0.2c0,0,0,0,0,0.1
		c0,0.1,0.1,0.2,0.2,0.2c0.1,0,1.1,0.1,1.1,1.1c0,1-1.1,1.1-1.1,1.1c-0.1,0-0.1,0.1-0.2,0.2c0,0.1,0,0.3,0,0.4c0,0,0,0,0,0.1
		c0,0.1,0.1,0.2,0.2,0.2c0.1,0,1.1-0.1,1.2,0.9c0.1,1-0.9,1.2-1,1.2c-0.1,0-0.1,0.1-0.1,0.3c0,0,0,0,0,0c0,0.1,0.1,0.3,0.1,0.4
		c0,0,0,0,0,0.1c0,0.1,0.1,0.2,0.2,0.2c0.1,0,1.1-0.3,1.3,0.7c0.3,1-0.7,1.3-0.8,1.4c-0.1,0-0.1,0.2-0.1,0.3c0,0,0,0,0,0
		c0,0.1,0.1,0.3,0.1,0.4c0,0,0,0,0,0c0.1,0.1,0.1,0.2,0.3,0.1c0.1,0,1-0.4,1.4,0.5c0.4,0.9-0.5,1.4-0.6,1.5c0,0-0.1,0.2-0.1,0.3
		c0.1,0.1,0.1,0.3,0.2,0.4c0,0,0,0,0,0c0.1,0.1,0.2,0.1,0.3,0.1c0.1,0,0.9-0.6,1.5,0.3c0.6,0.9-0.3,1.5-0.3,1.5c0,0-0.1,0.2,0,0.3
		c0.1,0.1,0.2,0.2,0.3,0.3c0,0,0,0,0.1,0c0.1,0.1,0.2,0.1,0.3,0.1c0.1,0,0.8-0.7,1.5,0.1c0.7,0.8-0.1,1.5-0.1,1.6c0,0.1,0,0.2,0,0.3
		c0.1,0.1,0.2,0.2,0.3,0.3c0,0,0,0,0.1,0c0.1,0,0.2,0.1,0.3,0c0.1,0,0.7-0.8,1.5-0.2c0.8,0.7,0.2,1.5,0.1,1.6c0,0.1,0,0.2,0.1,0.3
		c0.1,0.1,0.2,0.2,0.3,0.2c0,0,0,0,0.1,0c0.1,0,0.2,0,0.3,0c0.1,0,0.6-0.9,1.5-0.4c0.9,0.5,0.4,1.5,0.4,1.5c0,0.1,0,0.2,0.1,0.3
		c0,0,0,0,0,0c0.1,0.1,0.2,0.1,0.4,0.2c0,0,0,0,0.1,0c0.1,0,0.2,0,0.3-0.1c0-0.1,0.4-1,1.4-0.6c1,0.4,0.6,1.4,0.6,1.5
		c0,0.1,0.1,0.2,0.2,0.3c0,0,0,0,0,0c0.1,0,0.3,0.1,0.4,0.1c0,0,0,0,0.1,0c0.1,0,0.2,0,0.3-0.1c0-0.1,0.3-1,1.3-0.8
		c1,0.3,0.8,1.3,0.8,1.4c0,0.1,0.1,0.2,0.2,0.2c0.1,0,0.3,0.1,0.4,0.1c0,0,0,0,0.1,0c0.1,0,0.2,0,0.2-0.2c0-0.1,0.1-1.1,1.2-1
		c1,0.1,1,1.1,1,1.2c0,0.1,0.1,0.1,0.2,0.2c0.1,0,0.3,0,0.4,0c0,0,0,0,0.1,0c0.1,0,0.2-0.1,0.2-0.2c0-0.1,0-1.1,1-1.1
		c1-0.1,1.1,1,1.2,1.1c0,0.1,0.1,0.1,0.3,0.2h0c0.1,0,0.3,0,0.4-0.1c0,0,0,0,0.1,0c0.1,0,0.2-0.1,0.2-0.2c0-0.1-0.2-1.1,0.8-1.3
		c1-0.2,1.3,0.8,1.3,0.9c0,0.1,0.1,0.1,0.3,0.1c0,0,0,0,0,0c0.1,0,0.3-0.1,0.4-0.1c0,0,0,0,0,0c0.1,0,0.2-0.1,0.2-0.3
		c0-0.1-0.3-1,0.6-1.4c1-0.4,1.4,0.6,1.4,0.7c0,0,0.2,0.1,0.3,0.1c0.1-0.1,0.3-0.1,0.4-0.2c0,0,0,0,0,0c0.1-0.1,0.1-0.2,0.1-0.3
		c0-0.1-0.5-1,0.4-1.5c0.9-0.5,1.4,0.4,1.5,0.5c0,0,0.2,0.1,0.3,0c0.1-0.1,0.2-0.2,0.4-0.2c0,0,0,0,0-0.1c0.1-0.1,0.1-0.2,0.1-0.3
		c0-0.1-0.6-0.9,0.2-1.5c0.8-0.6,1.5,0.2,1.6,0.2c0.1,0,0.2,0,0.3,0c0.1-0.1,0.2-0.2,0.3-0.3c0,0,0,0,0-0.1c0-0.1,0.1-0.2,0-0.3
		c0-0.1-0.8-0.8,0-1.5c0.7-0.7,1.5,0,1.6,0c0.1,0,0.2,0,0.3,0c0.1-0.1,0.2-0.2,0.3-0.3c0,0,0,0,0-0.1c0-0.1,0.1-0.2,0-0.3
		c0-0.1-0.9-0.6-0.3-1.5c0.6-0.8,1.5-0.3,1.6-0.2c0.1,0,0.2,0,0.3-0.1c0,0,0,0,0,0c0.1-0.1,0.1-0.2,0.2-0.4c0,0,0,0,0-0.1
		c0-0.1,0-0.2-0.1-0.3c-0.1,0-1-0.5-0.5-1.4c0.5-0.9,1.4-0.5,1.5-0.5c0.1,0,0.2,0,0.3-0.1c0,0,0,0,0,0c0.1-0.1,0.1-0.3,0.2-0.4
		c0,0,0,0,0-0.1c0-0.1,0-0.2-0.1-0.3c-0.1,0-1-0.4-0.7-1.4c0.3-1,1.3-0.7,1.4-0.7c0.1,0,0.2-0.1,0.2-0.2c0-0.1,0.1-0.3,0.1-0.4
		c0,0,0,0,0-0.1c0-0.1,0-0.2-0.1-0.3c-0.1,0-1.1-0.2-0.9-1.2c0.2-1,1.2-0.9,1.3-0.9c0.1,0,0.2-0.1,0.2-0.2c0-0.1,0-0.2,0-0.2
		c0-0.1,0-0.1,0-0.2c0,0,0,0,0-0.1C209.4,28.7,209.4,28.6,209.3,28.6 M178.8,17.1c1.8,0,3.2,1.4,3.2,3.2v14.1h3.9v-5.8h5.7v4.9
		c0,3.1,1.9,5.7,4.7,6.7c-2.3,1.3-4.9,2.1-7.7,2.1c-8.4,0-15.2-6.8-15.2-15.2c0-2.4,0.6-4.7,1.5-6.7c0,0,0.7-1.2,1-1.7
		C176.6,17.7,177.7,17.1,178.8,17.1 M198.8,36.6c-1.8,0-3.2-1.4-3.2-3.2V19.3h-3.9v5.3H186v-4.3c0-3.1-1.9-5.7-4.6-6.7
		c2.2-1.2,4.6-1.9,7.3-1.9c8.4,0,15.2,6.8,15.2,15.2c0,2.3-0.5,4.5-1.4,6.4c-0.2,0.4-0.4,0.8-0.6,1.2c-0.3,0.6-0.3,0.6-0.6,1
		C200.7,36.3,199.8,36.6,198.8,36.6"/>
	<polygon class="st0" points="24.9,19.5 14.7,19.5 14.7,6.1 7.8,6.1 7.8,39 14.7,39 14.7,25.7 24.9,25.7 24.9,39 31.8,39 31.8,6.1 
		24.9,6.1 	"/>
	<path class="st0" d="M50.6,33.4c-4,1.4-9.4,0-9.2-4.9V15.2H35v13.2c0,7.2,5.5,11,12.2,11c3.1,0,6.1-0.5,9.9-1.8V15.2h-6.5
		L50.6,33.4L50.6,33.4z"/>
	<path class="st0" d="M70.1,14.7c-1.1,0-2.3,0.2-3.5,0.5v-9h-6.4v31.7c3.7,1.3,6.9,1.5,9.6,1.5c8,0,12.5-6.1,12.5-12.2
		C82.2,20.6,77,14.7,70.1,14.7 M69.7,33.8c-1,0-2.1-0.1-3.1-0.3V21.1c1-0.4,1.8-0.5,2.7-0.5c3.6,0,6.5,2.9,6.5,6.7
		C75.9,30.3,73.7,33.8,69.7,33.8"/>
	<polygon class="st0" points="111.6,15.1 109,27 108.2,31.8 107,27.2 103.6,15.2 96.4,15.2 93.4,27.2 92.1,33.2 91,27 88.4,15.1 
		81.8,15.1 87.7,39 96.2,39 99.1,27.6 100,22.7 101,27.6 103.7,39 112.2,39 118.3,15.1 	"/>
	<path class="st0" d="M128.3,14.5c-3.1,0-6.3,1-9.2,3.2l2.2,3.9c1.9-1.1,4-1.8,6.4-1.8c2.4,0,4.7,1.1,4.7,4.1
		c-6.2-2-14.9,0.5-14.9,7.6c0,4.1,3.3,8,9.6,8c1.9,0,4.2-0.8,5.7-2.6l0.8,2.1h5.1V24.8C138.8,17.8,133.7,14.5,128.3,14.5
		 M132.5,32.6c-1,0.8-2.8,1.7-4.2,1.7c-3.1,0-4.8-1.6-4.8-3.2c0.1-3.4,5.9-3.6,9-2.3L132.5,32.6L132.5,32.6z"/>
	<path class="st0" d="M156.6,15.2l-4.2,11.9l-1.1,3.4l-1.4-3.3l-4.9-12h-6.9c2.9,7,6.4,15.2,9.3,22.3c-1,4.4-1.2,5.3-5.5,5.3v4.8
		c3.9,0.8,9.1,0,10.9-4.6l10.7-27.9H156.6z"/>
	<path class="st1" d="M209.3,28.6c-0.1,0-1.1-0.1-1.1-1.1c0-1,1.1-1.1,1.1-1.1c0.1,0,0.1-0.1,0.2-0.2c0-0.1,0-0.3,0-0.4
		c0,0,0,0,0-0.1c0-0.1-0.1-0.2-0.2-0.2c-0.1,0-1.1,0.1-1.2-0.9c-0.1-1,0.9-1.2,1-1.2c0.1,0,0.1-0.1,0.1-0.3v0c0-0.1-0.1-0.3-0.1-0.4
		c0,0,0,0,0-0.1c0-0.1-0.1-0.2-0.2-0.2c-0.1,0-1.1,0.3-1.3-0.7c-0.3-1,0.7-1.3,0.8-1.4c0.1,0,0.1-0.1,0.1-0.3c0,0,0,0,0,0
		c0-0.1-0.1-0.3-0.1-0.4c0,0,0,0,0,0c-0.1-0.1-0.1-0.2-0.3-0.1c-0.1,0-1,0.4-1.4-0.5c-0.4-0.9,0.5-1.4,0.6-1.5c0,0,0.1-0.2,0.1-0.3
		c-0.1-0.1-0.1-0.3-0.2-0.4c0,0,0,0-0.1,0c-0.1-0.1-0.2-0.1-0.3-0.1c-0.1,0-0.9,0.6-1.5-0.3c-0.6-0.9,0.3-1.5,0.3-1.5
		c0,0,0.1-0.2,0-0.3c-0.1-0.1-0.2-0.2-0.3-0.3c0,0,0,0-0.1,0c-0.1,0-0.2-0.1-0.3-0.1c-0.1,0-0.8,0.7-1.5-0.1
		c-0.7-0.8,0.1-1.5,0.1-1.6c0-0.1,0-0.2,0-0.3c-0.1-0.1-0.2-0.2-0.3-0.3c0,0,0,0-0.1,0c-0.1,0-0.2-0.1-0.3,0c-0.1,0-0.7,0.8-1.5,0.2
		c-0.8-0.7-0.2-1.5-0.1-1.6c0-0.1,0-0.2-0.1-0.3c-0.1-0.1-0.2-0.2-0.3-0.2c0,0,0,0-0.1,0c-0.1,0-0.2,0-0.3,0c-0.1,0-0.6,0.9-1.5,0.4
		c-0.9-0.5-0.4-1.5-0.4-1.5c0-0.1,0-0.2-0.1-0.3c0,0,0,0,0,0c-0.1-0.1-0.2-0.1-0.4-0.2c0,0,0,0-0.1,0c-0.1,0-0.2,0-0.3,0.1
		c0,0.1-0.4,1-1.4,0.6c-1-0.4-0.6-1.4-0.6-1.5c0-0.1-0.1-0.2-0.2-0.3h0c-0.1,0-0.3-0.1-0.4-0.1c0,0,0,0-0.1,0c-0.1,0-0.2,0-0.3,0.1
		c0,0.1-0.3,1-1.3,0.8c-1-0.3-0.8-1.3-0.8-1.4c0-0.1-0.1-0.2-0.2-0.2c-0.1,0-0.3-0.1-0.4-0.1c0,0,0,0-0.1,0c-0.1,0-0.2,0-0.3,0.2
		c0,0.1-0.1,1.1-1.2,1c-1-0.1-1-1.1-1-1.2c0-0.1-0.1-0.1-0.2-0.2c-0.1,0-0.3,0-0.4,0c0,0,0,0-0.1,0c-0.1,0-0.2,0.1-0.2,0.2
		c0,0.1,0,1.1-1,1.1c-1,0.1-1.1-1-1.2-1.1c0-0.1-0.1-0.1-0.2-0.2h0c-0.1,0-0.3,0-0.4,0.1c0,0,0,0-0.1,0c-0.1,0-0.2,0.1-0.2,0.2
		c0,0.1,0.2,1.1-0.8,1.3c-1,0.2-1.3-0.8-1.3-0.9c0-0.1-0.1-0.1-0.3-0.1c0,0,0,0,0,0c-0.1,0-0.3,0.1-0.4,0.1c0,0,0,0,0,0
		c-0.1,0.1-0.2,0.1-0.2,0.3c0,0.1,0.3,1-0.6,1.4c-1,0.4-1.4-0.6-1.4-0.7c0,0-0.2-0.1-0.3-0.1C180.1,7.9,180,8,179.9,8c0,0,0,0,0,0.1
		c-0.1,0.1-0.1,0.2-0.1,0.3c0,0.1,0.5,1-0.4,1.5c-0.9,0.5-1.4-0.4-1.5-0.5c0,0-0.2-0.1-0.3,0c-0.1,0.1-0.2,0.2-0.4,0.2
		c0,0,0,0,0,0.1C177,9.7,177,9.8,177,9.9c0,0.1,0.6,0.9-0.2,1.5c-0.8,0.6-1.5-0.2-1.6-0.2c-0.1,0-0.2,0-0.3,0
		c-0.1,0.1-0.2,0.2-0.3,0.3c0,0,0,0,0,0.1c0,0.1-0.1,0.2,0,0.3c0,0.1,0.8,0.8,0,1.5c-0.7,0.7-1.5,0-1.6,0c-0.1,0-0.2,0-0.3,0
		c-0.1,0.1-0.2,0.2-0.3,0.3c0,0,0,0,0,0.1c0,0.1-0.1,0.2,0,0.3c0,0.1,0.9,0.7,0.3,1.5c-0.6,0.8-1.5,0.3-1.6,0.2
		c-0.1,0-0.2,0-0.3,0.1c0,0,0,0,0,0c-0.1,0.1-0.1,0.2-0.2,0.4c0,0,0,0,0,0.1c0,0.1,0,0.2,0.1,0.3c0.1,0,1,0.5,0.5,1.4
		c-0.5,0.9-1.4,0.5-1.5,0.5c-0.1,0-0.2,0-0.3,0.1c0,0,0,0,0,0c-0.1,0.1-0.1,0.3-0.2,0.4c0,0,0,0,0,0.1c0,0.1,0,0.2,0.1,0.3
		c0.1,0,1,0.4,0.7,1.4c-0.3,1-1.3,0.7-1.4,0.7c-0.1,0-0.2,0.1-0.2,0.2c0,0.1-0.1,0.3-0.1,0.4c0,0,0,0,0,0.1c0,0.1,0,0.2,0.1,0.3
		c0.1,0,1.1,0.2,0.9,1.2c-0.2,1-1.2,0.9-1.3,0.9c-0.1,0-0.2,0.1-0.2,0.2c0,0.1,0,0.2,0,0.2c0,0.1,0,0.1,0,0.2c0,0,0,0,0,0.1
		c0,0.1,0.1,0.2,0.2,0.2c0.1,0,1.1,0.1,1.1,1.1c0,1-1.1,1.1-1.1,1.1c-0.1,0-0.1,0.1-0.2,0.2c0,0.1,0,0.3,0,0.4c0,0,0,0,0,0.1
		c0,0.1,0.1,0.2,0.2,0.2c0.1,0,1.1-0.1,1.2,0.9c0.1,1-0.9,1.2-1,1.2c-0.1,0-0.1,0.1-0.1,0.3c0,0,0,0,0,0c0,0.1,0.1,0.3,0.1,0.4
		c0,0,0,0,0,0.1c0,0.1,0.1,0.2,0.2,0.2c0.1,0,1.1-0.3,1.3,0.7c0.3,1-0.7,1.3-0.8,1.4c-0.1,0-0.1,0.2-0.1,0.3c0,0,0,0,0,0
		c0,0.1,0.1,0.3,0.1,0.4c0,0,0,0,0,0c0.1,0.1,0.1,0.2,0.3,0.1c0.1,0,1-0.4,1.4,0.5c0.4,0.9-0.5,1.4-0.6,1.5c0,0-0.1,0.2-0.1,0.3
		c0.1,0.1,0.1,0.3,0.2,0.4c0,0,0,0,0,0c0.1,0.1,0.2,0.1,0.3,0.1c0.1,0,0.9-0.6,1.5,0.3c0.6,0.9-0.3,1.5-0.3,1.5c0,0-0.1,0.2,0,0.3
		c0.1,0.1,0.2,0.2,0.3,0.3c0,0,0,0,0.1,0c0.1,0.1,0.2,0.1,0.3,0.1c0.1,0,0.8-0.7,1.5,0.1c0.7,0.8-0.1,1.5-0.1,1.6c0,0.1,0,0.2,0,0.3
		c0.1,0.1,0.2,0.2,0.3,0.3c0,0,0,0,0.1,0c0.1,0,0.2,0.1,0.3,0c0.1,0,0.7-0.8,1.5-0.2c0.8,0.7,0.2,1.5,0.1,1.6c0,0.1,0,0.2,0.1,0.3
		c0.1,0.1,0.2,0.2,0.3,0.2c0,0,0,0,0.1,0c0.1,0,0.2,0,0.3,0c0.1,0,0.6-0.9,1.5-0.4c0.9,0.5,0.4,1.5,0.4,1.5c0,0.1,0,0.2,0.1,0.3
		c0,0,0,0,0,0c0.1,0.1,0.2,0.1,0.4,0.2c0,0,0,0,0.1,0c0.1,0,0.2,0,0.3-0.1c0-0.1,0.4-1,1.4-0.6c1,0.4,0.6,1.4,0.6,1.5
		c0,0.1,0.1,0.2,0.2,0.3c0,0,0,0,0,0c0.1,0,0.3,0.1,0.4,0.1c0,0,0,0,0.1,0c0.1,0,0.2,0,0.3-0.1c0-0.1,0.3-1,1.3-0.8
		c1,0.3,0.8,1.3,0.8,1.4c0,0.1,0.1,0.2,0.2,0.2c0.1,0,0.3,0.1,0.4,0.1c0,0,0,0,0.1,0c0.1,0,0.2,0,0.2-0.2c0-0.1,0.1-1.1,1.2-1
		c1,0.1,1,1.1,1,1.2c0,0.1,0.1,0.1,0.2,0.2c0.1,0,0.3,0,0.4,0c0,0,0,0,0.1,0c0.1,0,0.2-0.1,0.2-0.2c0-0.1,0-1.1,1-1.1
		c1-0.1,1.1,1,1.2,1.1c0,0.1,0.1,0.1,0.3,0.2h0c0.1,0,0.3,0,0.4-0.1c0,0,0,0,0.1,0c0.1,0,0.2-0.1,0.2-0.2c0-0.1-0.2-1.1,0.8-1.3
		c1-0.2,1.3,0.8,1.3,0.9c0,0.1,0.1,0.1,0.3,0.1c0,0,0,0,0,0c0.1,0,0.3-0.1,0.4-0.1c0,0,0,0,0,0c0.1,0,0.2-0.1,0.2-0.3
		c0-0.1-0.3-1,0.6-1.4c1-0.4,1.4,0.6,1.4,0.7c0,0,0.2,0.1,0.3,0.1c0.1-0.1,0.3-0.1,0.4-0.2c0,0,0,0,0,0c0.1-0.1,0.1-0.2,0.1-0.3
		c0-0.1-0.5-1,0.4-1.5c0.9-0.5,1.4,0.4,1.5,0.5c0,0,0.2,0.1,0.3,0c0.1-0.1,0.2-0.2,0.4-0.2c0,0,0,0,0-0.1c0.1-0.1,0.1-0.2,0.1-0.3
		c0-0.1-0.6-0.9,0.2-1.5c0.8-0.6,1.5,0.2,1.6,0.2c0.1,0,0.2,0,0.3,0c0.1-0.1,0.2-0.2,0.3-0.3c0,0,0,0,0-0.1c0-0.1,0.1-0.2,0-0.3
		c0-0.1-0.8-0.8,0-1.5c0.7-0.7,1.5,0,1.6,0c0.1,0,0.2,0,0.3,0c0.1-0.1,0.2-0.2,0.3-0.3c0,0,0,0,0-0.1c0-0.1,0.1-0.2,0-0.3
		c0-0.1-0.9-0.6-0.3-1.5c0.6-0.8,1.5-0.3,1.6-0.2c0.1,0,0.2,0,0.3-0.1c0,0,0,0,0,0c0.1-0.1,0.1-0.2,0.2-0.4c0,0,0,0,0-0.1
		c0-0.1,0-0.2-0.1-0.3c-0.1,0-1-0.5-0.5-1.4c0.5-0.9,1.4-0.5,1.5-0.5c0.1,0,0.2,0,0.3-0.1c0,0,0,0,0,0c0.1-0.1,0.1-0.3,0.2-0.4
		c0,0,0,0,0-0.1c0-0.1,0-0.2-0.1-0.3c-0.1,0-1-0.4-0.7-1.4c0.3-1,1.3-0.7,1.4-0.7c0.1,0,0.2-0.1,0.2-0.2c0-0.1,0.1-0.3,0.1-0.4
		c0,0,0,0,0-0.1c0-0.1,0-0.2-0.1-0.3c-0.1,0-1.1-0.2-0.9-1.2c0.2-1,1.2-0.9,1.3-0.9c0.1,0,0.2-0.1,0.2-0.2c0-0.1,0-0.2,0-0.2
		c0-0.1,0-0.1,0-0.2c0,0,0,0,0-0.1C209.4,28.7,209.4,28.6,209.3,28.6 M178.8,17.1c1.8,0,3.2,1.4,3.2,3.2v14.1h3.9v-5.8h5.7v4.9
		c0,3.1,1.9,5.7,4.7,6.7c-2.3,1.3-4.9,2.1-7.7,2.1c-8.4,0-15.2-6.8-15.2-15.2c0-2.4,0.6-4.7,1.5-6.7c0,0,0.7-1.2,1-1.7
		C176.6,17.7,177.7,17.1,178.8,17.1 M198.8,36.6c-1.8,0-3.2-1.4-3.2-3.2V19.3h-3.9v5.3H186v-4.3c0-3.1-1.9-5.7-4.6-6.7
		c2.2-1.2,4.6-1.9,7.3-1.9c8.4,0,15.2,6.8,15.2,15.2c0,2.3-0.5,4.5-1.4,6.4c-0.2,0.4-0.4,0.8-0.6,1.2c-0.3,0.6-0.3,0.6-0.6,1
		C200.7,36.3,199.8,36.6,198.8,36.6"/>
</g>
</svg>
